Coordinates
version=1
nRows=30
nColumns=34
inDegrees=no

Units are S.I. units (second, meters, Newtons, ...)
If the header above contains a line with 'inDegrees', this indicates whether rotational values are in degrees (yes) or radians (no).

endheader
time	pelvis_tilt	pelvis_list	pelvis_rotation	pelvis_tx	pelvis_ty	pelvis_tz	hip_flexion_r	hip_adduction_r	hip_rotation_r	knee_angle_r	ankle_angle_r	subtalar_angle_r	mtp_angle_r	hip_flexion_l	hip_adduction_l	hip_rotation_l	knee_angle_l	ankle_angle_l	subtalar_angle_l	mtp_angle_l	lumbar_extension	lumbar_bending	lumbar_rotation	arm_flex_r	arm_add_r	arm_rot_r	elbow_flex_r	pro_sup_r	arm_flex_l	arm_add_l	arm_rot_l	elbow_flex_l	pro_sup_l
0.47	0.0854316	-0.0135333	-0.00548481	0.331309	0.95046	-0.214936	-0.166585	0.0173609	-0.299762	0.28658	0.550538	0.340065	-0.0118615	0.399611	-0.0745093	-0.134985	0.196488	0.036768	-0.00374478	-0.0119918	-0.301734	-0.0854218	0.00438985	0.230657	-0.207513	0.231394	0.647894	1.91657	0.0103035	-0.141875	-0.236801	0.5828	1.7755
0.48	0.0894296	-0.0105244	-0.0105237	0.343224	0.948524	-0.21463	-0.185047	0.010484	-0.313472	0.289118	0.565133	0.364409	-0.0118643	0.388941	-0.0710246	-0.133641	0.14633	0.0443833	0.0104218	-0.011979	-0.309228	-0.098035	0.00454599	0.24438	-0.205789	0.243603	0.648465	1.91503	0.00745152	-0.144573	-0.246212	0.584437	1.77304
0.49	0.0930526	-0.00746236	-0.0155687	0.355281	0.946511	-0.214344	-0.203184	0.00381713	-0.324544	0.291483	0.578186	0.384656	-0.0118671	0.379867	-0.0678433	-0.131175	0.10492	0.0529376	0.0192928	-0.0119663	-0.316012	-0.110914	0.00443305	0.25712	-0.2033	0.254205	0.648808	1.91384	0.00452351	-0.147543	-0.255206	0.585475	1.77045
0.5	0.0962322	-0.00417771	-0.0204619	0.367494	0.944446	-0.214078	-0.220953	-0.00267594	-0.332652	0.293619	0.589511	0.4002	-0.0118699	0.372963	-0.0648957	-0.128371	0.0737205	0.0621455	0.0232679	-0.0119536	-0.321969	-0.124267	0.00399313	0.268631	-0.199974	0.263024	0.648985	1.91298	0.00155053	-0.150916	-0.263588	0.585835	1.7676
0.51	0.0989139	-0.000482202	-0.0250341	0.379876	0.942354	-0.213832	-0.23833	-0.00906864	-0.337632	0.295475	0.59895	0.410616	-0.0118727	0.368597	-0.0620121	-0.125948	0.0536161	0.0714691	0.0230735	-0.0119408	-0.327009	-0.138315	0.00315991	0.278677	-0.195774	0.269963	0.649087	1.91241	-0.00143963	-0.154811	-0.271184	0.585469	1.76442
0.52	0.101054	0.00381151	-0.0291199	0.392444	0.940255	-0.213612	-0.255305	-0.0154558	-0.339474	0.29701	0.606365	0.415656	-0.0118755	0.36689	-0.0589372	-0.1244	0.0447565	0.0800654	0.0195606	-0.0119281	-0.331065	-0.153258	0.0018756	0.287035	-0.190721	0.275022	0.649239	1.91201	-0.0044175	-0.159316	-0.277859	0.584356	1.76089
0.53	0.102609	0.00886335	-0.0325722	0.405219	0.938161	-0.21343	-0.271862	-0.0219336	-0.338297	0.298201	0.611629	0.415222	-0.0118783	0.367703	-0.0553648	-0.123907	0.0465029	0.0868109	0.0135253	-0.0119154	-0.334093	-0.169249	0.000108175	0.29351	-0.184901	0.278318	0.649597	1.91161	-0.0073472	-0.16448	-0.283526	0.582491	1.75708
0.54	0.103534	0.0147836	-0.0352762	0.418217	0.936079	-0.213302	-0.287957	-0.0285805	-0.3343	0.299074	0.614609	0.409315	-0.0118811	0.370686	-0.0509846	-0.124339	0.0575063	0.0904191	0.00559198	-0.0119026	-0.336062	-0.186371	-0.00213519	0.297945	-0.178459	0.280075	0.650327	1.91099	-0.0101833	-0.170297	-0.288145	0.579879	1.75308
0.55	0.103787	0.02163	-0.0371626	0.431456	0.934065	-0.213253	-0.303492	-0.0354413	-0.327712	0.299726	0.615141	0.397963	-0.0118839	0.375351	-0.0455336	-0.125346	0.0759047	0.0896509	-0.00382162	-0.0118899	-0.336954	-0.204626	-0.00480049	0.30024	-0.17159	0.280617	0.65158	1.90993	-0.0128689	-0.176714	-0.291729	0.576539	1.74897
0.56	0.103321	0.0293837	-0.0382123	0.44494	0.932142	-0.2133	-0.318301	-0.0425221	-0.318728	0.300363	0.613001	0.381155	-0.0118867	0.381166	-0.0388394	-0.126498	0.0996062	0.0835809	-0.0144642	-0.0118772	-0.336769	-0.223943	-0.0077846	0.300367	-0.164511	0.280329	0.653455	1.90821	-0.015337	-0.183634	-0.294335	0.572502	1.74482
0.57	0.1021	0.0379599	-0.0384627	0.458665	0.930336	-0.213456	-0.332134	-0.0497855	-0.307466	0.301324	0.607871	0.358781	-0.0118895	0.387644	-0.0308581	-0.127432	0.126592	0.0718594	-0.026168	-0.0118644	-0.335531	-0.244185	-0.0109397	0.298374	-0.157432	0.279615	0.655975	1.90571	-0.0175128	-0.19093	-0.296071	0.56782	1.74066
0.58	0.100109	0.0472166	-0.0380075	0.472616	0.928674	-0.213724	-0.344657	-0.057155	-0.293952	0.303104	0.599308	0.330619	-0.0118923	0.394406	-0.0216909	-0.127951	0.155176	0.0549016	-0.0387617	-0.0118517	-0.333294	-0.265168	-0.0140837	0.294389	-0.150526	0.278845	0.659067	1.90245	-0.0193185	-0.198459	-0.297097	0.562573	1.73646
0.59	0.0973676	0.0569695	-0.0369889	0.486764	0.927185	-0.2141	-0.355454	-0.0645269	-0.278149	0.306367	0.586724	0.296367	-0.0118951	0.4012	-0.0115779	-0.128049	0.184172	0.033943	-0.0520083	-0.011839	-0.330145	-0.286674	-0.0170177	0.288616	-0.143914	0.278319	0.662556	1.89862	-0.0206793	-0.206068	-0.297627	0.55687	1.73216
0.6	0.0939386	0.0670091	-0.0355844	0.501071	0.925896	-0.214571	-0.364045	-0.0717897	-0.260023	0.311932	0.5694	0.25574	-0.0118979	0.407885	-0.000863861	-0.12788	0.212924	0.0109314	-0.0655824	-0.0118262	-0.326208	-0.308471	-0.0195483	0.281317	-0.137647	0.278231	0.666188	1.89462	-0.0215316	-0.213609	-0.297925	0.550846	1.72774
0.61	0.0899277	0.0771199	-0.0339863	0.515492	0.924836	-0.215122	-0.369911	-0.0788461	-0.239638	0.320737	0.546516	0.208591	-0.0119008	0.414386	0.0100565	-0.127669	0.241227	-0.0117355	-0.0790853	-0.0118135	-0.321642	-0.33032	-0.0215151	0.272803	-0.131717	0.278674	0.669652	1.89099	-0.0218298	-0.220943	-0.298297	0.544662	1.72315
0.62	0.0854775	0.0870989	-0.0323785	0.529976	0.924031	-0.215735	-0.372526	-0.0856371	-0.217248	0.333783	0.517237	0.155055	-0.0119036	0.420631	0.0208034	-0.127621	0.269149	-0.0315735	-0.0920806	-0.0118008	-0.316627	-0.351984	-0.0228176	0.263405	-0.126076	0.27966	0.672637	1.88839	-0.0215553	-0.227941	-0.299069	0.5385	1.71843
0.63	0.080753	0.0967728	-0.0309144	0.544473	0.923506	-0.216399	-0.371396	-0.0921609	-0.19337	0.352043	0.480831	0.0956688	-0.0119064	0.426494	0.0310717	-0.127857	0.296818	-0.0464002	-0.104142	-0.011788	-0.311356	-0.373232	-0.0234373	0.253465	-0.12066	0.28117	0.67487	1.88744	-0.0207233	-0.234487	-0.300561	0.532552	1.71367
0.64	0.0759215	0.106008	-0.0297019	0.558934	0.923279	-0.21711	-0.366101	-0.0984813	-0.168792	0.376354	0.436819	0.031422	-0.0119092	0.431767	0.040671	-0.128372	0.324241	-0.054664	-0.114902	-0.0117753	-0.306013	-0.393834	-0.0234497	0.243308	-0.115425	0.283205	0.676169	1.88867	-0.019387	-0.240477	-0.303051	0.527014	1.70898
0.65	0.0711313	0.114716	-0.0287955	0.573317	0.923366	-0.217872	-0.356338	-0.104725	-0.144521	0.407306	0.385141	-0.0362706	-0.011912	0.436156	0.0495389	-0.12905	0.351195	-0.0556439	-0.124099	-0.0117625	-0.300765	-0.413561	-0.023021	0.233236	-0.110372	0.285837	0.676469	1.89236	-0.0176388	-0.245817	-0.306746	0.522079	1.70453
0.66	0.0665029	0.122844	-0.0281963	0.58758	0.923772	-0.218697	-0.341958	-0.111069	-0.121671	0.445138	0.326321	-0.105673	-0.0119149	0.439311	0.0577255	-0.129705	0.3772	-0.0494875	-0.131605	-0.0117498	-0.295739	-0.432189	-0.0223908	0.223513	-0.105566	0.289241	0.675837	1.8985	-0.0156051	-0.250424	-0.311752	0.517921	1.70045
0.67	0.0621258	0.130352	-0.0278725	0.601694	0.924483	-0.219603	-0.323001	-0.117709	-0.101317	0.489663	0.261571	-0.174902	-0.0119177	0.440875	0.0653602	-0.130133	0.40159	-0.0370938	-0.137433	-0.0117371	-0.291025	-0.449498	-0.0218459	0.214359	-0.101135	0.293685	0.674455	1.9068	-0.0134328	-0.254229	-0.318055	0.51469	1.69687
0.68	0.0580552	0.137205	-0.0277771	0.615631	0.925478	-0.220608	-0.299701	-0.124821	-0.0843374	0.54024	0.192833	-0.242137	-0.0119205	0.44053	0.0725921	-0.130168	0.423628	-0.0198792	-0.141714	-0.0117243	-0.286673	-0.465275	-0.0216743	0.205946	-0.0972566	0.299492	0.672594	1.91672	-0.0112707	-0.25718	-0.325512	0.512495	1.69385
0.69	0.0543206	0.143362	-0.0278677	0.629371	0.926724	-0.221726	-0.272478	-0.132515	-0.0712859	0.595798	0.122695	-0.305816	-0.0119233	0.438044	0.0795368	-0.129731	0.442636	0.000506517	-0.144648	-0.0117116	-0.2827	-0.479322	-0.0221179	0.198394	-0.0941273	0.306958	0.670561	1.92756	-0.00924487	-0.259253	-0.333842	0.51139	1.69142
0.7	0.0509351	0.148777	-0.0281246	0.642898	0.928186	-0.22296	-0.2419	-0.140808	-0.062326	0.654916	0.0542047	-0.364784	-0.0119262	0.433286	0.0862402	-0.12885	0.458096	0.0224488	-0.146442	-0.0116988	-0.279105	-0.491465	-0.0233347	0.19177	-0.0919222	0.31626	0.668654	1.93861	-0.00743717	-0.260463	-0.342642	0.511366	1.68952
0.71	0.0479025	0.153403	-0.0285585	0.656202	0.929831	-0.224306	-0.208628	-0.149615	-0.0572336	0.715943	-0.00943651	-0.418351	-0.011929	0.42623	0.0926681	-0.127668	0.469703	0.0445723	-0.147249	-0.0116861	-0.275874	-0.501578	-0.0253763	0.186086	-0.0907576	0.327371	0.667111	1.94924	-0.00586965	-0.260861	-0.351407	0.512349	1.68808
0.72	0.0452195	0.157197	-0.0292097	0.669274	0.931629	-0.225747	-0.173346	-0.158748	-0.0554598	0.777137	-0.0652456	-0.466272	-0.0119319	0.416939	0.0987162	-0.126424	0.47737	0.0658567	-0.147129	-0.0116734	-0.272989	-0.509593	-0.0281855	0.181298	-0.0906607	0.339999	0.666077	1.95898	-0.00449955	-0.260547	-0.35957	0.514197	1.68698
0.73	0.0428746	0.160127	-0.0301361	0.682113	0.933555	-0.227263	-0.136696	-0.167937	-0.0562346	0.8368	-0.110837	-0.508656	-0.0119347	0.405544	0.104234	-0.12541	0.481192	0.0856649	-0.146038	-0.0116606	-0.270428	-0.515507	-0.031612	0.17731	-0.0915566	0.353578	0.665586	1.96755	-0.00322629	-0.259651	-0.366551	0.51672	1.68612
0.74	0.0408445	0.162171	-0.0313948	0.694721	0.935588	-0.228826	-0.0992392	-0.176848	-0.0586901	0.893386	-0.14473	-0.545826	-0.0119375	0.392223	0.109055	-0.124917	0.481394	0.103702	-0.143855	-0.0116479	-0.268162	-0.519373	-0.0354457	0.173975	-0.0932761	0.367321	0.665568	1.97489	-0.0019094	-0.258328	-0.371813	0.51969	1.68538
0.75	0.039093	0.163315	-0.033022	0.707102	0.937711	-0.230411	-0.061429	-0.185112	-0.0619824	0.945579	-0.166508	-0.57817	-0.0119404	0.377178	0.113022	-0.125172	0.478277	0.119934	-0.140424	-0.0116351	-0.266153	-0.521272	-0.0394585	0.171112	-0.0955826	0.380313	0.665868	1.98108	-0.000393649	-0.256739	-0.374911	0.522875	1.68469
0.76	0.0375727	0.163544	-0.0350152	0.719258	0.939885	-0.231998	-0.0236289	-0.192348	-0.0653934	0.992319	-0.176804	-0.606011	-0.0119432	0.360618	0.116007	-0.126288	0.472174	0.134487	-0.13562	-0.0116224	-0.264362	-0.521288	-0.0434483	0.168519	-0.098213	0.391644	0.666284	1.98631	0.0014639	-0.255025	-0.375538	0.526058	1.68398
